<?xml version="1.0" encoding="UTF-8"?>
<svg width="50" height="50" viewBox="0 0 50 50" fill="none" xmlns="http://www.w3.org/2000/svg">
  <circle cx="25" cy="25" r="25" fill="#1a5f7a"/>
  <path d="M25 15C20.0294 15 16 19.0294 16 24C16 28.9706 20.0294 33 25 33C29.9706 33 34 28.9706 34 24C34 19.0294 29.9706 15 25 15ZM25 30C21.6863 30 19 27.3137 19 24C19 20.6863 21.6863 18 25 18C28.3137 18 31 20.6863 31 24C31 27.3137 28.3137 30 25 30Z" fill="white"/>
  <path d="M25 20C23.3431 20 22 21.3431 22 23C22 24.6569 23.3431 26 25 26C26.6569 26 28 24.6569 28 23C28 21.3431 26.6569 20 25 20Z" fill="#1a5f7a"/>
  <path d="M32 32C32 29.2386 29.7614 27 27 27H23C20.2386 27 18 29.2386 18 32" stroke="white" stroke-width="2"/>
</svg>
