<?xml version="1.0" encoding="utf-8"?>
<svg xmlns="http://www.w3.org/2000/svg" width="82" height="30" viewBox="0 0 82 30">
  <path fill="#0071C5" d="M5.2,0h71.6c2.9,0,5.2,2.3,5.2,5.2v19.6c0,2.9-2.3,5.2-5.2,5.2H5.2C2.3,30,0,27.7,0,24.8V5.2C0,2.3,2.3,0,5.2,0z"/>
  <path fill="#FFFFFF" d="M15.6,23.4h-4.5V6.6h4.5V23.4z M35.4,23.4h-4.5v-7.5c0-1.8-0.7-2.7-2.1-2.7c-1.4,0-2.1,0.9-2.1,2.7v7.5h-4.5V6.6h4.5v1.5c0.9-1.2,2.3-1.8,4.2-1.8c3,0,4.5,2.1,4.5,6.3V23.4z M49.1,23.4h-4.5v-1.5c-0.9,1.2-2.3,1.8-4.2,1.8c-3,0-4.5-2.1-4.5-6.3V6.6h4.5v7.5c0,1.8,0.7,2.7,2.1,2.7c1.4,0,2.1-0.9,2.1-2.7V6.6h4.5V23.4z M66.7,23.4h-4.5v-7.5c0-1.8-0.7-2.7-2.1-2.7c-1.4,0-2.1,0.9-2.1,2.7v7.5h-4.5V6.6h4.5v1.5c0.9-1.2,2.3-1.8,4.2-1.8c3,0,4.5,2.1,4.5,6.3V23.4z"/>
</svg>
